<svg width="31" height="31" viewBox="0 0 31 31" fill="none" xmlns="http://www.w3.org/2000/svg">
<path d="M30.9375 15.2438C30.9375 7.08918 24.0699 0.482178 15.5937 0.482178C7.11757 0.482178 0.25 7.08918 0.25 15.2438C0.25 23.3984 7.11757 30.0054 15.5938 30.0054C24.0699 30.0054 30.9375 23.3984 30.9375 15.2438ZM3.21976 15.2438C3.21976 8.66653 8.75712 3.33926 15.5937 3.33926C22.4304 3.33926 27.9677 8.66653 27.9677 15.2438C27.9677 21.821 22.4304 27.1483 15.5938 27.1483C8.75712 27.1483 3.21976 21.821 3.21976 15.2438ZM7.67439 16.4342V14.0533C7.67439 13.6605 8.00849 13.3391 8.41683 13.3391L15.5937 13.3391V9.35104C15.5937 8.71415 16.3919 8.39868 16.8621 8.8451L22.9872 14.7378C23.278 15.0176 23.278 15.47 22.9872 15.7497L16.8621 21.6425C16.3919 22.0948 15.5937 21.7734 15.5937 21.1365V17.1485H8.41683C8.00849 17.1485 7.67439 16.8271 7.67439 16.4342Z" fill="black"/>
</svg>
