<svg width="31" height="31" viewBox="0 0 31 31" fill="none" xmlns="http://www.w3.org/2000/svg">
<path d="M30.8521 15.4266C30.8521 7.27191 23.9845 0.664795 15.5084 0.664795C7.03218 0.664795 0.164612 7.27191 0.164612 15.4266C0.164612 23.5814 7.03218 30.1885 15.5084 30.1885C23.9845 30.1885 30.8521 23.5814 30.8521 15.4266ZM3.13437 15.4266C3.13437 8.84928 8.67173 3.52192 15.5084 3.52192C22.345 3.52192 27.8824 8.84928 27.8824 15.4266C27.8824 22.004 22.345 27.3313 15.5084 27.3313C8.67173 27.3313 3.13437 22.004 3.13437 15.4266ZM7.58901 16.6171V14.2362C7.58901 13.8433 7.92311 13.5219 8.33145 13.5219L15.5084 13.5219V9.5338C15.5084 8.8969 16.3065 8.58143 16.7767 9.02785L22.9018 14.9207C23.1926 15.2004 23.1926 15.6528 22.9018 15.9326L16.7767 21.8254C16.3065 22.2778 15.5084 21.9564 15.5084 21.3195V17.3314H8.33145C7.92311 17.3314 7.58901 17.01 7.58901 16.6171Z" fill="white"/>
</svg>
