<svg width="19" height="19" viewBox="0 0 19 19" fill="none" xmlns="http://www.w3.org/2000/svg">
<path d="M16.3184 18.2522L12.7153 14.8199C12.5527 14.665 12.4617 14.4544 12.4606 14.2329L12.4576 13.669C11.1933 14.6301 9.59974 15.2053 7.86297 15.2137C3.73141 15.2337 0.366864 12.0287 0.346042 8.05307C0.325221 4.07749 3.65603 0.839973 7.78759 0.819944C11.9191 0.799916 15.2837 4.00498 15.3045 7.98056C15.3133 9.65176 14.7316 11.1909 13.7456 12.4171L14.3317 12.4142C14.5618 12.4131 14.7816 12.4986 14.9442 12.6535L18.5473 16.0858C18.887 16.4094 18.8898 16.9353 18.5534 17.2587L17.541 18.2428C17.2047 18.5697 16.6581 18.5724 16.3184 18.2522ZM12.4279 7.99451C12.4151 5.54826 10.3479 3.57563 7.80209 3.58797C5.25986 3.6003 3.20984 5.58942 3.22267 8.03913C3.23548 10.4854 5.30266 12.458 7.84848 12.4457C10.3907 12.4333 12.4407 10.4442 12.4279 7.99451Z" fill="white"/>
</svg>
