<svg width="392" height="153" viewBox="0 0 392 153" fill="none" xmlns="http://www.w3.org/2000/svg">
<circle cx="149" cy="70.973" r="50" fill="#020202"/>
<path d="M135.768 52.493H133.368C132.664 50.637 131.928 48.461 131.16 45.965C130.456 43.469 129.848 41.101 129.336 38.861C131.576 36.941 134.264 35.437 137.4 34.349C140.536 33.197 143.928 32.621 147.576 32.621C150.776 32.621 153.528 33.069 155.832 33.965C158.136 34.861 160.024 36.077 161.496 37.613C163.032 39.149 164.152 40.941 164.856 42.989C165.56 44.973 165.912 47.053 165.912 49.229C165.912 52.813 165.08 56.493 163.416 60.269C161.752 64.045 159.672 67.725 157.176 71.309C154.744 74.829 152.088 78.157 149.208 81.293C146.328 84.429 143.672 87.181 141.24 89.549L137.208 93.293V93.677L142.584 93.101H159.096L163.8 82.349H166.2C166.328 83.757 166.456 85.293 166.584 86.957C166.712 88.621 166.808 90.317 166.872 92.045C167 93.709 167.096 95.341 167.16 96.941C167.224 98.477 167.256 99.821 167.256 100.973H127.608V97.901C129.016 96.429 130.712 94.637 132.696 92.525C134.744 90.413 136.856 88.077 139.032 85.517C141.208 82.957 143.352 80.237 145.464 77.357C147.64 74.477 149.56 71.565 151.224 68.621C152.888 65.613 154.232 62.637 155.256 59.693C156.344 56.749 156.888 53.933 156.888 51.245C156.888 49.389 156.632 47.629 156.12 45.965C155.672 44.301 154.968 42.861 154.008 41.645C153.048 40.365 151.864 39.373 150.456 38.669C149.112 37.965 147.544 37.613 145.752 37.613C144.408 37.613 143.224 37.709 142.2 37.901C141.176 38.093 140.056 38.381 138.84 38.765L135.768 52.493Z" fill="white"/>
<path d="M1.44 55.277C3.872 53.741 6.432 52.653 9.12 52.013V43.853C9.952 43.149 10.912 42.541 12 42.029C13.152 41.453 14.272 40.909 15.36 40.397H17.76V52.973H32.16V57.773H17.76V85.613C17.76 89.453 18.368 92.173 19.584 93.773C20.8 95.373 22.624 96.173 25.056 96.173C26.208 96.173 27.648 96.109 29.376 95.981C31.104 95.789 32.576 95.469 33.792 95.021L34.464 96.461C33.952 97.037 33.216 97.645 32.256 98.285C31.36 98.925 30.304 99.533 29.088 100.109C27.936 100.685 26.656 101.165 25.248 101.549C23.84 101.933 22.4 102.125 20.928 102.125C17.088 102.125 14.144 101.037 12.096 98.861C10.112 96.685 9.12 93.165 9.12 88.301V57.773H1.44V55.277ZM39.561 76.973C39.561 72.941 40.073 69.389 41.097 66.317C42.185 63.181 43.721 60.557 45.705 58.445C47.689 56.269 50.057 54.637 52.809 53.549C55.625 52.397 58.729 51.821 62.121 51.821C66.089 51.821 69.513 52.429 72.393 53.645C75.273 54.861 77.609 56.589 79.401 58.829C81.257 61.005 82.601 63.629 83.433 66.701C84.329 69.773 84.777 73.197 84.777 76.973C84.777 85.037 82.729 91.245 78.633 95.597C74.537 99.949 69.033 102.125 62.121 102.125C58.281 102.125 54.953 101.549 52.137 100.397C49.321 99.181 46.985 97.485 45.129 95.309C43.273 93.069 41.865 90.413 40.905 87.341C40.009 84.205 39.561 80.749 39.561 76.973ZM48.777 76.973C48.777 79.853 49.033 82.573 49.545 85.133C50.121 87.693 50.985 89.933 52.137 91.853C53.353 93.709 54.921 95.181 56.841 96.269C58.761 97.357 61.065 97.901 63.753 97.901C67.209 97.901 70.025 96.205 72.201 92.813C74.441 89.421 75.561 84.141 75.561 76.973C75.561 74.029 75.273 71.309 74.697 68.813C74.185 66.253 73.353 64.045 72.201 62.189C71.049 60.269 69.577 58.765 67.785 57.677C65.993 56.589 63.849 56.045 61.353 56.045C57.577 56.045 54.537 57.741 52.233 61.133C49.929 64.525 48.777 69.805 48.777 76.973ZM228.83 60.173C228.126 60.557 227.23 61.357 226.142 62.573C225.118 63.725 224.19 65.453 223.358 67.757V96.269C224.638 96.397 225.918 96.653 227.198 97.037C228.478 97.357 229.758 97.869 231.038 98.573V100.973H208.382V98.573C209.534 97.933 210.622 97.453 211.646 97.133C212.67 96.813 213.694 96.525 214.718 96.269V58.541L208.382 57.773V55.277C210.43 54.381 212.542 53.677 214.718 53.165C216.894 52.589 218.974 52.141 220.958 51.821H223.358V61.997H223.742C224.318 60.717 225.118 59.437 226.142 58.157C227.23 56.877 228.446 55.725 229.79 54.701C231.198 53.677 232.702 52.909 234.302 52.397C235.966 51.821 237.662 51.629 239.39 51.821C239.838 52.653 240.222 53.581 240.542 54.605C240.926 55.565 241.278 56.589 241.598 57.677V60.173H228.83ZM285.066 94.253C284.554 95.341 283.754 96.365 282.666 97.325C281.578 98.285 280.33 99.117 278.922 99.821C277.514 100.525 275.978 101.069 274.314 101.453C272.65 101.901 270.954 102.125 269.226 102.125C265.45 102.125 262.122 101.549 259.242 100.397C256.362 99.181 253.962 97.485 252.042 95.309C250.122 93.069 248.65 90.413 247.626 87.341C246.666 84.269 246.186 80.813 246.186 76.973C246.186 68.781 248.074 62.541 251.85 58.253C255.626 53.965 260.97 51.821 267.882 51.821C270.122 51.821 272.33 52.141 274.506 52.781C276.682 53.357 278.602 54.349 280.266 55.757C281.994 57.165 283.37 59.053 284.394 61.421C285.482 63.725 286.026 66.605 286.026 70.061C286.026 71.149 285.962 72.269 285.834 73.421C285.77 74.509 285.61 75.693 285.354 76.973H255.402C255.402 79.661 255.722 82.189 256.362 84.557C257.066 86.861 258.09 88.877 259.434 90.605C260.778 92.333 262.474 93.709 264.522 94.733C266.57 95.693 268.97 96.173 271.722 96.173C273.962 96.173 276.234 95.853 278.538 95.213C280.842 94.573 282.57 93.741 283.722 92.717L285.066 94.253ZM267.498 56.045C263.85 56.045 261.066 57.293 259.146 59.789C257.226 62.221 256.074 66.541 255.69 72.749H276.81C276.874 72.173 276.906 71.629 276.906 71.117C276.97 70.541 277.002 69.997 277.002 69.485C277.002 65.389 276.234 62.125 274.698 59.693C273.162 57.261 270.762 56.045 267.498 56.045ZM345.923 100.973H325.283V98.573C327.011 97.677 328.899 96.909 330.947 96.269V73.517C330.947 68.653 330.243 64.813 328.835 61.997C327.427 59.181 324.867 57.773 321.155 57.773C319.555 57.773 318.051 58.061 316.643 58.637C315.299 59.213 314.083 60.013 312.995 61.037C311.971 61.997 311.075 63.117 310.307 64.397C309.539 65.613 308.931 66.893 308.483 68.237V96.269C310.467 96.653 312.387 97.421 314.243 98.573V100.973H293.507V98.573C295.107 97.741 297.219 96.973 299.843 96.269V58.541L293.507 57.773V55.277C295.171 54.573 297.091 53.933 299.267 53.357C301.443 52.781 303.715 52.269 306.083 51.821H308.483V62.573H308.579C309.923 59.629 311.843 57.101 314.339 54.989C316.899 52.877 319.971 51.821 323.555 51.821C326.115 51.821 328.387 52.141 330.371 52.781C332.419 53.357 334.115 54.413 335.459 55.949C336.803 57.485 337.827 59.565 338.531 62.189C339.235 64.749 339.587 68.013 339.587 71.981V96.269C342.147 96.717 344.259 97.485 345.923 98.573V100.973ZM348.971 55.277C351.403 53.741 353.963 52.653 356.651 52.013V43.853C357.483 43.149 358.443 42.541 359.531 42.029C360.683 41.453 361.803 40.909 362.891 40.397H365.291V52.973H379.691V57.773H365.291V85.613C365.291 89.453 365.899 92.173 367.115 93.773C368.331 95.373 370.155 96.173 372.587 96.173C373.739 96.173 375.179 96.109 376.907 95.981C378.635 95.789 380.107 95.469 381.323 95.021L381.995 96.461C381.483 97.037 380.747 97.645 379.787 98.285C378.891 98.925 377.835 99.533 376.619 100.109C375.467 100.685 374.187 101.165 372.779 101.549C371.371 101.933 369.931 102.125 368.459 102.125C364.619 102.125 361.675 101.037 359.627 98.861C357.643 96.685 356.651 93.165 356.651 88.301V57.773H348.971V55.277Z" fill="#888888"/>
<path d="M201.16 145.973L200.08 149.525H199.456C199.376 148.741 199.312 147.949 199.264 147.149C199.232 146.349 199.216 145.565 199.216 144.797H200.848C201.04 144.573 201.256 144.221 201.496 143.741C201.736 143.261 201.96 142.645 202.168 141.893C202.392 141.125 202.576 140.213 202.72 139.157C202.88 138.085 202.96 136.837 202.96 135.413C202.624 135.317 202.32 135.197 202.048 135.053C201.776 134.909 201.528 134.757 201.304 134.597V133.973H211.504V134.597C211.072 134.885 210.544 135.077 209.92 135.173V144.797H212.056C212.072 145.565 212.056 146.349 212.008 147.149C211.96 147.949 211.888 148.741 211.792 149.525H211.192L210.112 145.973H201.16ZM204.28 135.173C204.28 136.613 204.208 137.869 204.064 138.941C203.92 140.013 203.744 140.933 203.536 141.701C203.344 142.453 203.136 143.085 202.912 143.597C202.688 144.093 202.488 144.493 202.312 144.797H207.76V135.173H204.28ZM213.742 139.973C213.742 138.965 213.87 138.077 214.126 137.309C214.398 136.525 214.782 135.869 215.278 135.341C215.774 134.797 216.366 134.389 217.054 134.117C217.758 133.829 218.534 133.685 219.382 133.685C220.374 133.685 221.23 133.837 221.95 134.141C222.67 134.445 223.254 134.877 223.702 135.437C224.166 135.981 224.502 136.637 224.71 137.405C224.934 138.173 225.046 139.029 225.046 139.973C225.046 141.989 224.534 143.541 223.51 144.629C222.486 145.717 221.11 146.261 219.382 146.261C218.422 146.261 217.59 146.117 216.886 145.829C216.182 145.525 215.598 145.101 215.134 144.557C214.67 143.997 214.318 143.333 214.078 142.565C213.854 141.781 213.742 140.917 213.742 139.973ZM216.046 139.973C216.046 140.693 216.11 141.373 216.238 142.013C216.382 142.653 216.598 143.213 216.886 143.693C217.19 144.157 217.582 144.525 218.062 144.797C218.542 145.069 219.118 145.205 219.79 145.205C220.654 145.205 221.358 144.781 221.902 143.933C222.462 143.085 222.742 141.765 222.742 139.973C222.742 139.237 222.67 138.557 222.526 137.933C222.398 137.293 222.19 136.741 221.902 136.277C221.614 135.797 221.246 135.421 220.798 135.149C220.35 134.877 219.814 134.741 219.19 134.741C218.246 134.741 217.486 135.165 216.91 136.013C216.334 136.861 216.046 138.181 216.046 139.973ZM230.991 145.973H226.767V145.373C227.295 145.117 227.823 144.925 228.351 144.797L228.711 135.413C228.375 135.285 228.079 135.149 227.823 135.005C227.567 134.861 227.335 134.725 227.127 134.597V133.973H231.807L234.279 140.981L234.735 142.637H234.807L235.311 140.957L237.879 133.973H242.415V134.597C242.207 134.725 241.975 134.837 241.719 134.933C241.463 135.029 241.167 135.109 240.831 135.173L241.311 144.797C241.839 144.893 242.367 145.085 242.895 145.373V145.973H237.807V145.373C237.967 145.293 238.159 145.205 238.383 145.109C238.607 145.013 238.895 144.909 239.247 144.797L238.767 135.077H238.575L234.639 145.973H233.991L230.103 135.077H229.911L229.551 144.797C230.127 144.973 230.607 145.165 230.991 145.373V145.973ZM253.488 142.829C253.488 143.181 253.496 143.485 253.512 143.741C253.528 143.997 253.544 144.269 253.56 144.557L255.216 144.797V145.301C254.816 145.509 254.368 145.693 253.872 145.853C253.392 146.013 252.928 146.133 252.48 146.213H251.88C251.72 145.845 251.624 145.445 251.592 145.013C251.56 144.565 251.536 144.077 251.52 143.549H251.4C251.336 143.869 251.208 144.197 251.016 144.533C250.84 144.853 250.6 145.141 250.296 145.397C250.008 145.653 249.664 145.861 249.264 146.021C248.864 146.181 248.408 146.261 247.896 146.261C246.92 146.261 246.12 145.965 245.496 145.373C244.888 144.781 244.584 144.005 244.584 143.045C244.584 142.309 244.728 141.709 245.016 141.245C245.32 140.765 245.76 140.389 246.336 140.117C246.912 139.845 247.624 139.653 248.472 139.541C249.32 139.413 250.304 139.317 251.424 139.253C251.488 138.565 251.504 137.949 251.472 137.405C251.456 136.845 251.368 136.373 251.208 135.989C251.064 135.589 250.84 135.285 250.536 135.077C250.248 134.853 249.864 134.741 249.384 134.741C249.16 134.741 248.904 134.757 248.616 134.789C248.344 134.805 248.072 134.869 247.8 134.981L246.672 137.861H246.048C245.888 137.381 245.744 136.885 245.616 136.373C245.504 135.861 245.432 135.357 245.4 134.861C246.008 134.493 246.68 134.205 247.416 133.997C248.168 133.789 249 133.685 249.912 133.685C250.728 133.685 251.376 133.805 251.856 134.045C252.352 134.269 252.728 134.565 252.984 134.933C253.24 135.301 253.408 135.709 253.488 136.157C253.568 136.605 253.608 137.053 253.608 137.501C253.608 138.461 253.584 139.389 253.536 140.285C253.504 141.165 253.488 142.013 253.488 142.829ZM248.856 144.773C249.256 144.773 249.608 144.693 249.912 144.533C250.216 144.373 250.472 144.181 250.68 143.957C250.888 143.733 251.056 143.509 251.184 143.285C251.312 143.045 251.4 142.845 251.448 142.685V140.165C250.52 140.165 249.76 140.213 249.168 140.309C248.576 140.405 248.112 140.557 247.776 140.765C247.44 140.973 247.208 141.237 247.08 141.557C246.952 141.861 246.888 142.213 246.888 142.613C246.888 143.301 247.064 143.837 247.416 144.221C247.768 144.589 248.248 144.773 248.856 144.773ZM262.538 133.973H267.626V134.597C267.45 134.693 267.242 134.789 267.002 134.885C266.778 134.981 266.506 135.077 266.186 135.173V141.749L265.922 143.981H266.042L266.978 142.181L272.114 133.973H275.354V134.597C274.842 134.885 274.314 135.077 273.77 135.173V144.797C274.074 144.877 274.362 144.965 274.634 145.061C274.906 145.141 275.146 145.245 275.354 145.373V145.973H270.266V145.373C270.714 145.117 271.194 144.925 271.706 144.797V137.933L271.946 136.037H271.826L270.914 137.837L265.826 145.973H262.538V145.373C262.81 145.245 263.074 145.141 263.33 145.061C263.586 144.965 263.85 144.877 264.122 144.797V135.173C263.498 135.077 262.97 134.885 262.538 134.597V133.973ZM289.933 133.973H294.565V134.597C294.405 134.725 294.189 134.837 293.917 134.933C293.661 135.029 293.341 135.141 292.957 135.269C292.413 135.925 291.837 136.589 291.229 137.261C290.621 137.933 289.981 138.605 289.309 139.277C289.661 139.661 290.029 140.085 290.413 140.549C290.813 141.013 291.213 141.493 291.613 141.989C292.013 142.485 292.413 142.973 292.813 143.453C293.213 143.933 293.605 144.381 293.989 144.797L295.117 145.373V145.973H292.309L291.541 145.421C290.821 144.557 290.165 143.693 289.573 142.829C288.981 141.965 288.381 141.117 287.773 140.285H286.813V144.797C287.133 144.877 287.421 144.965 287.677 145.061C287.949 145.141 288.181 145.245 288.373 145.373V145.973H283.069V145.373C283.501 145.117 284.029 144.925 284.653 144.797V135.173C284.093 135.061 283.565 134.869 283.069 134.597V133.973H287.989V134.597C287.829 134.709 287.653 134.813 287.461 134.909C287.285 135.005 287.069 135.093 286.813 135.173V139.661L287.917 139.421C288.557 138.685 289.165 137.997 289.741 137.357C290.317 136.717 290.853 136.021 291.349 135.269C291.077 135.157 290.821 135.053 290.581 134.957C290.357 134.845 290.141 134.725 289.933 134.597V133.973ZM306.661 142.469C306.661 143.109 306.517 143.661 306.229 144.125C305.941 144.573 305.549 144.941 305.053 145.229C304.573 145.517 304.013 145.733 303.373 145.877C302.733 146.005 302.061 146.069 301.357 146.069C300.845 146.069 300.437 146.061 300.133 146.045C299.829 146.045 299.573 146.037 299.365 146.021C299.157 146.005 298.981 145.989 298.837 145.973C298.693 145.973 298.533 145.973 298.357 145.973H296.053V145.373C296.549 145.117 297.077 144.925 297.637 144.797V135.173C297.029 135.061 296.501 134.869 296.053 134.597V133.973H298.213C298.597 133.973 298.925 133.973 299.197 133.973C299.469 133.957 299.725 133.941 299.965 133.925C300.205 133.909 300.445 133.901 300.685 133.901C300.925 133.885 301.189 133.877 301.477 133.877C302.885 133.877 303.981 134.093 304.765 134.525C305.549 134.941 305.941 135.677 305.941 136.733C305.941 137.117 305.861 137.461 305.701 137.765C305.541 138.069 305.333 138.333 305.077 138.557C304.821 138.781 304.533 138.973 304.213 139.133C303.893 139.277 303.581 139.381 303.277 139.445C303.725 139.477 304.149 139.565 304.549 139.709C304.965 139.853 305.325 140.053 305.629 140.309C305.949 140.549 306.197 140.853 306.373 141.221C306.565 141.573 306.661 141.989 306.661 142.469ZM299.797 144.941C300.021 144.989 300.301 145.013 300.637 145.013C300.989 145.013 301.277 145.013 301.501 145.013C302.445 145.013 303.149 144.813 303.613 144.413C304.077 143.997 304.309 143.413 304.309 142.661C304.309 141.877 304.029 141.293 303.469 140.909C302.909 140.509 302.189 140.309 301.309 140.309H299.797V144.941ZM299.797 139.589L302.461 139.349C302.749 139.205 303.037 138.941 303.325 138.557C303.629 138.157 303.781 137.637 303.781 136.997C303.781 136.213 303.541 135.677 303.061 135.389C302.597 135.085 301.909 134.933 300.997 134.933C300.821 134.933 300.621 134.941 300.397 134.957C300.173 134.957 299.973 134.981 299.797 135.029V139.589ZM317.637 142.829C317.637 143.181 317.645 143.485 317.661 143.741C317.677 143.997 317.693 144.269 317.709 144.557L319.365 144.797V145.301C318.965 145.509 318.517 145.693 318.021 145.853C317.541 146.013 317.077 146.133 316.629 146.213H316.029C315.869 145.845 315.773 145.445 315.741 145.013C315.709 144.565 315.685 144.077 315.669 143.549H315.549C315.485 143.869 315.357 144.197 315.165 144.533C314.989 144.853 314.749 145.141 314.445 145.397C314.157 145.653 313.813 145.861 313.413 146.021C313.013 146.181 312.557 146.261 312.045 146.261C311.069 146.261 310.269 145.965 309.645 145.373C309.037 144.781 308.733 144.005 308.733 143.045C308.733 142.309 308.877 141.709 309.165 141.245C309.469 140.765 309.909 140.389 310.485 140.117C311.061 139.845 311.773 139.653 312.621 139.541C313.469 139.413 314.453 139.317 315.573 139.253C315.637 138.565 315.653 137.949 315.621 137.405C315.605 136.845 315.517 136.373 315.357 135.989C315.213 135.589 314.989 135.285 314.685 135.077C314.397 134.853 314.013 134.741 313.533 134.741C313.309 134.741 313.053 134.757 312.765 134.789C312.493 134.805 312.221 134.869 311.949 134.981L310.821 137.861H310.197C310.037 137.381 309.893 136.885 309.765 136.373C309.653 135.861 309.581 135.357 309.549 134.861C310.157 134.493 310.829 134.205 311.565 133.997C312.317 133.789 313.149 133.685 314.061 133.685C314.877 133.685 315.525 133.805 316.005 134.045C316.501 134.269 316.877 134.565 317.133 134.933C317.389 135.301 317.557 135.709 317.637 136.157C317.717 136.605 317.757 137.053 317.757 137.501C317.757 138.461 317.733 139.389 317.685 140.285C317.653 141.165 317.637 142.013 317.637 142.829ZM313.005 144.773C313.405 144.773 313.757 144.693 314.061 144.533C314.365 144.373 314.621 144.181 314.829 143.957C315.037 143.733 315.205 143.509 315.333 143.285C315.461 143.045 315.549 142.845 315.597 142.685V140.165C314.669 140.165 313.909 140.213 313.317 140.309C312.725 140.405 312.261 140.557 311.925 140.765C311.589 140.973 311.357 141.237 311.229 141.557C311.101 141.861 311.037 142.213 311.037 142.613C311.037 143.301 311.213 143.837 311.565 144.221C311.917 144.589 312.397 144.773 313.005 144.773ZM325.986 150.773H320.658V150.173C321.202 149.917 321.73 149.725 322.242 149.597V135.365L320.658 135.173V134.549C321.17 134.325 321.69 134.149 322.218 134.021C322.762 133.877 323.29 133.765 323.802 133.685H324.402V136.373H324.426C324.746 135.557 325.194 134.909 325.77 134.429C326.346 133.933 327.098 133.685 328.026 133.685C329.45 133.685 330.554 134.157 331.338 135.101C332.122 136.045 332.514 137.581 332.514 139.709C332.514 140.717 332.378 141.629 332.106 142.445C331.85 143.261 331.474 143.949 330.978 144.509C330.498 145.069 329.906 145.501 329.202 145.805C328.514 146.109 327.746 146.261 326.898 146.261C326.306 146.261 325.842 146.221 325.506 146.141C325.17 146.077 324.802 145.957 324.402 145.781V149.597C324.658 149.629 324.914 149.685 325.17 149.765C325.426 149.861 325.698 149.997 325.986 150.173V150.773ZM327.258 135.173C326.474 135.173 325.85 135.421 325.386 135.917C324.922 136.413 324.594 137.093 324.402 137.957V144.677C324.69 144.853 325.01 144.989 325.362 145.085C325.73 145.165 326.202 145.205 326.778 145.205C327.306 145.205 327.778 145.069 328.194 144.797C328.626 144.525 328.986 144.141 329.274 143.645C329.578 143.149 329.81 142.573 329.97 141.917C330.13 141.245 330.21 140.509 330.21 139.709C330.21 139.053 330.154 138.453 330.042 137.909C329.946 137.349 329.778 136.869 329.538 136.469C329.314 136.053 329.01 135.733 328.626 135.509C328.258 135.285 327.802 135.173 327.258 135.173ZM341.725 145.973H336.397V145.373C336.893 145.117 337.421 144.925 337.981 144.797V135.029H335.749L334.693 137.909H334.069C333.989 137.221 333.925 136.549 333.877 135.893C333.829 135.221 333.797 134.581 333.781 133.973H344.341C344.325 134.549 344.293 135.181 344.245 135.869C344.213 136.541 344.149 137.221 344.053 137.909H343.429L342.373 135.029H340.141V144.797C340.893 144.989 341.421 145.181 341.725 145.373V145.973ZM345.952 133.973H351.04V134.597C350.864 134.693 350.656 134.789 350.416 134.885C350.192 134.981 349.92 135.077 349.6 135.173V141.749L349.336 143.981H349.456L350.392 142.181L355.528 133.973H358.768V134.597C358.256 134.885 357.728 135.077 357.184 135.173V144.797C357.488 144.877 357.776 144.965 358.048 145.061C358.32 145.141 358.56 145.245 358.768 145.373V145.973H353.68V145.373C354.128 145.117 354.608 144.925 355.12 144.797V137.933L355.36 136.037H355.24L354.328 137.837L349.24 145.973H345.952V145.373C346.224 145.245 346.488 145.141 346.744 145.061C347 144.965 347.264 144.877 347.536 144.797V135.173C346.912 135.077 346.384 134.885 345.952 134.597V133.973ZM365.783 150.773H360.455V150.173C360.999 149.917 361.527 149.725 362.039 149.597V135.365L360.455 135.173V134.549C360.967 134.325 361.487 134.149 362.015 134.021C362.559 133.877 363.087 133.765 363.599 133.685H364.199V136.373H364.223C364.543 135.557 364.991 134.909 365.567 134.429C366.143 133.933 366.895 133.685 367.823 133.685C369.247 133.685 370.351 134.157 371.135 135.101C371.919 136.045 372.311 137.581 372.311 139.709C372.311 140.717 372.175 141.629 371.903 142.445C371.647 143.261 371.271 143.949 370.775 144.509C370.295 145.069 369.703 145.501 368.999 145.805C368.311 146.109 367.543 146.261 366.695 146.261C366.103 146.261 365.639 146.221 365.303 146.141C364.967 146.077 364.599 145.957 364.199 145.781V149.597C364.455 149.629 364.711 149.685 364.967 149.765C365.223 149.861 365.495 149.997 365.783 150.173V150.773ZM367.055 135.173C366.271 135.173 365.647 135.421 365.183 135.917C364.719 136.413 364.391 137.093 364.199 137.957V144.677C364.487 144.853 364.807 144.989 365.159 145.085C365.527 145.165 365.999 145.205 366.575 145.205C367.103 145.205 367.575 145.069 367.991 144.797C368.423 144.525 368.783 144.141 369.071 143.645C369.375 143.149 369.607 142.573 369.767 141.917C369.927 141.245 370.007 140.509 370.007 139.709C370.007 139.053 369.951 138.453 369.839 137.909C369.743 137.349 369.575 136.869 369.335 136.469C369.111 136.053 368.807 135.733 368.423 135.509C368.055 135.285 367.599 135.173 367.055 135.173ZM377.985 138.869C378.257 138.837 378.561 138.797 378.897 138.749C379.233 138.701 379.721 138.677 380.361 138.677C381.561 138.677 382.521 138.957 383.241 139.517C383.977 140.077 384.345 140.957 384.345 142.157C384.345 142.797 384.225 143.365 383.985 143.861C383.761 144.341 383.441 144.749 383.025 145.085C382.609 145.405 382.113 145.653 381.537 145.829C380.961 145.989 380.329 146.069 379.641 146.069C379.209 146.069 378.721 146.053 378.177 146.021C377.649 145.989 377.081 145.973 376.473 145.973H374.241V145.373C374.513 145.213 374.777 145.093 375.033 145.013C375.289 144.933 375.553 144.861 375.825 144.797V135.173C375.521 135.125 375.241 135.053 374.985 134.957C374.729 134.845 374.481 134.725 374.241 134.597V133.973H379.425V134.597C379.057 134.821 378.577 135.013 377.985 135.173V138.869ZM377.985 144.941C378.193 144.957 378.401 144.973 378.609 144.989C378.817 145.005 379.033 145.013 379.257 145.013C381.065 145.013 381.969 144.053 381.969 142.133C381.969 141.685 381.897 141.309 381.753 141.005C381.625 140.685 381.441 140.437 381.201 140.261C380.977 140.069 380.713 139.933 380.409 139.853C380.105 139.773 379.785 139.733 379.449 139.733C379.225 139.733 378.985 139.741 378.729 139.757C378.473 139.757 378.225 139.781 377.985 139.829V144.941ZM390.273 145.973H385.113V145.373C385.337 145.261 385.561 145.157 385.785 145.061C386.009 144.965 386.257 144.877 386.529 144.797V135.173C385.921 135.061 385.441 134.869 385.089 134.597V133.973H390.273V134.597C390.081 134.725 389.849 134.837 389.577 134.933C389.305 135.013 389.009 135.093 388.689 135.173V144.797C388.961 144.877 389.225 144.965 389.481 145.061C389.737 145.141 390.001 145.245 390.273 145.373V145.973Z" fill="#888888"/>
</svg>
